<?xml version="1.0" encoding="UTF-8" standalone="no"?>
<!DOCTYPE svg PUBLIC "-//W3C//DTD SVG 1.1//EN" "http://www.w3.org/Graphics/SVG/1.1/DTD/svg11.dtd">
<svg width="100%" height="100%" viewBox="0 0 250 204" version="1.1" xmlns="http://www.w3.org/2000/svg" xmlns:xlink="http://www.w3.org/1999/xlink" xml:space="preserve" style="fill-rule:evenodd;clip-rule:evenodd;stroke-linejoin:round;stroke-miterlimit:1.41421;">
    <g transform="matrix(1,0,0,1,-62.6,-50.8)">
        <path d="M141.1,254C235.4,254 287,175.8 287,108.1C287,105.9 287,103.7 286.9,101.5C296.9,94.3 305.6,85.2 312.5,74.9C303.3,79 293.4,81.7 283,83C293.6,76.7 301.7,66.6 305.6,54.6C295.7,60.5 284.7,64.7 273,67C263.6,57 250.3,50.8 235.6,50.8C207.3,50.8 184.3,73.8 184.3,102.1C184.3,106.1 184.8,110 185.6,113.8C143,111.7 105.2,91.2 79.9,60.2C75.5,67.8 73,76.6 73,86C73,103.8 82.1,119.5 95.8,128.7C87.4,128.4 79.5,126.1 72.6,122.3C72.6,122.5 72.6,122.7 72.6,123C72.6,147.8 90.3,168.6 113.7,173.3C109.4,174.5 104.9,175.1 100.2,175.1C96.9,175.1 93.7,174.8 90.6,174.2C97.1,194.6 116.1,209.4 138.5,209.8C120.9,223.6 98.8,231.8 74.8,231.8C70.7,231.8 66.6,231.6 62.6,231.1C85.2,245.5 112.2,254 141.1,254" style="fill:black;fill-rule:nonzero;"/>
    </g>
</svg>
